<?xml version="1.0" standalone="no"?>
<!DOCTYPE svg PUBLIC "-//W3C//DTD SVG 20010904//EN"
 "http://www.w3.org/TR/2001/REC-SVG-20010904/DTD/svg10.dtd">
<svg version="1.0" xmlns="http://www.w3.org/2000/svg"
 width="1500.000000pt" height="1687.000000pt" viewBox="0 0 1500.000000 1687.000000"
 preserveAspectRatio="xMidYMid meet">

<g transform="translate(0.000000,1687.000000) scale(0.100000,-0.100000)"
fill="#000000" stroke="none">
<path d="M7280 15530 c-1011 -63 -1887 -295 -2785 -740 -917 -454 -1708 -1069
-2347 -1823 -59 -70 -108 -125 -108 -122 0 20 85 129 178 227 181 191 222 238
243 281 l21 42 -27 -25 c-15 -14 -81 -86 -147 -162 -771 -882 -1283 -1831
-1557 -2888 -50 -193 -79 -331 -86 -413 -6 -73 -29 -202 -79 -442 -20 -93 -39
-208 -42 -255 -3 -47 -14 -143 -25 -214 -12 -78 -16 -133 -11 -138 6 -6 12 7
16 31 3 23 11 41 16 41 15 0 11 -171 -7 -295 -21 -146 -28 -443 -13 -568 6
-54 20 -131 31 -170 15 -55 20 -100 19 -192 -4 -334 97 -801 322 -1503 65
-200 88 -255 88 -205 0 29 11 7 26 -54 9 -32 51 -132 94 -223 43 -91 86 -192
96 -225 10 -33 25 -71 35 -85 34 -51 149 -261 207 -377 34 -66 83 -149 111
-185 27 -36 73 -108 101 -159 103 -185 251 -398 439 -629 297 -364 577 -672
796 -873 954 -878 2093 -1463 3340 -1716 436 -88 780 -126 1240 -137 987 -24
1986 164 2871 541 206 88 261 115 303 151 17 14 72 41 122 60 202 75 430 205
744 422 88 61 237 163 331 227 94 63 180 125 190 136 10 12 91 86 179 164 179
159 296 278 321 327 9 18 74 89 143 158 180 178 404 458 514 644 23 39 76 107
117 152 41 44 82 94 91 110 9 16 58 88 109 159 94 132 213 325 206 333 -2 2
-16 -4 -31 -14 -19 -12 -29 -14 -37 -6 -9 9 7 50 60 159 147 307 245 550 350
873 143 439 236 862 293 1330 29 239 37 738 15 950 -9 85 -19 156 -21 159 -3
2 -5 -56 -5 -130 0 -289 -32 -717 -76 -1014 -124 -842 -393 -1632 -739 -2170
-28 -44 -76 -128 -107 -187 -143 -270 -346 -555 -612 -858 -216 -245 -736
-748 -954 -922 -452 -361 -1289 -825 -1944 -1079 -457 -177 -918 -288 -1363
-329 -191 -17 -207 -9 -30 16 741 103 1441 317 2080 636 625 312 1104 646
1548 1078 144 139 367 381 367 396 0 3 -73 -65 -162 -152 -542 -525 -876 -777
-1397 -1051 -69 -37 -147 -85 -172 -107 -64 -57 -173 -117 -356 -196 -147 -63
-482 -184 -489 -177 -2 2 38 21 89 42 306 128 582 263 602 294 3 6 -53 -16
-123 -49 -232 -105 -441 -189 -767 -306 -22 -8 -114 -37 -205 -65 -431 -132
-863 -220 -1280 -261 -192 -19 -784 -17 -960 2 l-135 15 405 6 c426 7 529 11
780 35 251 24 428 52 515 84 44 15 201 58 349 95 975 242 1881 690 2594 1284
68 56 153 132 190 167 53 52 40 44 -63 -42 -340 -279 -715 -539 -1022 -708
-158 -88 -423 -205 -298 -133 660 383 979 602 1223 840 119 117 138 153 25 46
-343 -320 -1025 -735 -1655 -1007 -216 -94 -266 -111 -277 -94 -10 17 -186
-40 -209 -68 -30 -37 -648 -189 -1036 -255 -385 -65 -537 -78 -871 -79 -199
-1 -319 3 -355 11 -30 7 -88 19 -129 28 -44 10 -166 19 -305 25 -318 12 -564
57 -950 175 -444 135 -1227 464 -1507 632 -126 76 -198 128 -596 432 -912 699
-1451 1311 -1891 2151 -335 639 -573 1375 -676 2090 -46 317 -57 464 -63 820
-10 647 48 1129 213 1755 103 390 256 791 454 1190 222 448 449 800 759 1180
58 72 123 155 143 185 57 82 127 159 128 138 0 -28 17 -22 66 24 61 56 71 76
47 94 -17 12 -4 27 167 196 281 278 541 487 885 713 703 462 1475 777 2315
945 253 51 694 100 893 100 68 0 82 3 124 30 26 17 70 37 97 45 57 17 142 20
151 5 4 -6 33 -8 73 -4 65 6 207 -7 247 -22 17 -7 18 -6 7 8 -12 15 -5 16 70
11 95 -7 149 -21 81 -22 -23 -1 -44 -5 -47 -10 -3 -4 54 -11 127 -14 73 -4
186 -15 252 -26 475 -78 683 -103 485 -60 -85 19 -85 19 -22 13 51 -4 62 -2
62 10 0 8 4 18 10 21 19 12 258 -60 539 -160 8 -3 12 -7 10 -10 -3 -2 -31 3
-63 11 -32 8 -60 13 -63 10 -3 -2 15 -10 38 -16 62 -17 251 -91 246 -97 -3 -2
-108 29 -234 70 -308 101 -351 106 -73 8 487 -170 912 -342 1183 -477 40 -20
68 -31 62 -26 -9 10 -178 96 -308 157 -32 15 -57 29 -55 31 2 2 40 -8 84 -21
43 -14 90 -27 104 -29 14 -3 77 -35 140 -72 63 -36 126 -70 140 -75 24 -9 24
-9 5 7 -11 8 -57 36 -102 60 -46 25 -83 47 -83 49 0 9 73 -28 230 -118 881
-502 1617 -1181 2157 -1987 127 -190 158 -242 257 -436 47 -94 100 -184 116
-199 41 -39 39 -13 -4 55 -83 131 -95 155 -86 164 16 16 11 49 -12 86 -17 28
-23 31 -26 17 -2 -10 -9 -16 -15 -14 -6 2 -49 68 -95 147 -231 394 -468 707
-793 1045 -85 89 -174 185 -199 215 -75 91 -2 30 136 -112 246 -255 521 -588
743 -898 45 -63 87 -115 92 -115 28 0 332 -597 453 -889 127 -307 268 -712
353 -1016 30 -107 31 -110 42 -91 5 8 11 9 15 3 11 -19 66 -275 96 -447 59
-347 85 -602 97 -955 6 -176 9 -211 15 -160 13 118 9 538 -7 705 -58 601 -222
1264 -465 1875 -126 316 -199 468 -246 515 -43 41 -74 92 -74 120 0 99 -352
637 -675 1030 -208 254 -504 561 -745 775 -181 161 -494 405 -677 528 -35 24
-71 51 -81 62 -23 25 -207 140 -368 230 -704 396 -1485 657 -2320 774 -548 77
-1188 87 -1745 26 -312 -34 -710 -102 -779 -133 -59 -27 -227 -130 -200 -123
181 46 317 77 418 97 67 12 122 27 122 31 0 4 -26 9 -57 9 -57 1 -57 1 -18 9
22 5 87 11 145 14 l105 6 -40 -20 c-22 -11 -37 -20 -33 -20 4 0 72 11 150 25
169 30 176 30 118 5 -25 -10 -117 -28 -205 -40 -869 -114 -1771 -471 -2615
-1033 -141 -94 -419 -303 -557 -418 -735 -616 -805 -693 -1292 -1414 -206
-305 -260 -378 -201 -270 208 377 455 715 796 1086 210 228 568 561 909 845
168 140 196 160 229 168 37 9 131 70 306 196 88 64 160 108 205 125 39 15 104
45 145 67 327 173 558 273 985 423 158 56 217 82 165 71 -90 -18 -87 -18 -60
-5 14 7 50 23 80 37 82 36 46 37 -66 1 -96 -30 -370 -131 -446 -163 -47 -20
-51 -41 -6 -32 41 8 35 3 -36 -28 -43 -19 -57 -22 -52 -11 4 12 -2 14 -27 10
-73 -9 -566 -247 -842 -405 -22 -13 -35 -18 -29 -11 29 32 405 245 619 351
765 378 1553 591 2413 651 216 15 886 6 1083 -14 828 -87 1530 -270 2221 -580
214 -96 630 -305 749 -377 389 -234 715 -493 1161 -921 113 -109 221 -204 240
-212 18 -8 56 -38 83 -67 28 -29 40 -47 28 -41 -48 24 -45 3 9 -55 30 -32 44
-41 49 -32 6 9 18 4 44 -22 44 -42 74 -90 33 -52 -13 12 -28 22 -33 22 -4 0
38 -45 94 -101 239 -237 488 -591 732 -1039 82 -153 244 -484 310 -638 24 -56
45 -98 47 -93 4 11 -78 228 -124 329 -18 39 -31 72 -28 72 3 0 26 -44 51 -97
144 -310 276 -681 374 -1050 34 -129 58 -203 66 -203 15 0 16 17 4 78 -6 31
-5 40 2 33 6 -6 19 -75 28 -153 20 -156 44 -261 64 -278 15 -12 16 -22 -32
223 -37 192 -69 317 -107 412 -13 33 -27 80 -31 105 -9 70 -70 241 -119 338
-24 48 -47 107 -51 131 -16 99 -115 350 -220 562 -383 765 -731 1281 -1205
1784 -570 605 -1335 1160 -2050 1485 -63 29 -128 65 -145 79 -64 58 -106 81
-240 134 -626 247 -1307 404 -2005 462 -221 19 -797 27 -1000 15z m587 -378
c6 -4 -94 -5 -222 -4 -249 4 -446 -9 -514 -33 -42 -15 -191 -32 -191 -22 0 3
23 10 52 17 29 6 55 15 58 20 3 5 60 13 125 18 148 11 676 14 692 4z m-394
-39 c-35 -2 -91 -2 -125 0 -35 2 -7 3 62 3 69 0 97 -1 63 -3z m2163 -35 c54
-17 92 -33 83 -35 -9 -2 -70 14 -135 37 -137 46 -96 45 52 -2z m-2409 26 c-3
-3 -12 -4 -19 -1 -8 3 -5 6 6 6 11 1 17 -2 13 -5z m432 -118 c-2 -2 -50 -9
-105 -14 -78 -8 -114 -7 -155 3 -52 12 -48 13 105 14 88 1 157 -1 155 -3z
m590 -31 c183 -19 347 -35 364 -34 l32 1 -40 14 -40 14 53 -5 c29 -2 94 -12
145 -22 l92 -18 -68 -3 c-37 -2 -193 9 -346 23 -161 14 -346 25 -439 25 -151
0 -162 1 -172 20 -10 19 -8 20 37 20 27 0 198 -16 382 -35z m1241 -86 c11 -6
12 -8 1 -9 -8 0 -11 -6 -7 -16 6 -14 1 -16 -36 -10 -23 4 -48 12 -55 18 -21
17 -4 30 30 23 25 -5 29 -4 17 5 -12 9 -10 10 10 4 14 -3 32 -10 40 -15z
m-573 -45 c-3 -3 -12 -4 -19 -1 -8 3 -5 6 6 6 11 1 17 -2 13 -5z m50 -10 c-3
-3 -12 -4 -19 -1 -8 3 -5 6 6 6 11 1 17 -2 13 -5z m803 -153 c273 -92 475
-169 467 -177 -2 -2 -55 17 -118 41 -62 25 -116 45 -119 45 -3 0 9 -11 25 -25
24 -20 7 -15 -94 26 -69 28 -130 57 -137 64 -8 7 -44 22 -81 34 -59 18 -109
40 -93 41 3 0 71 -22 150 -49z m492 -209 c73 -32 154 -66 180 -76 45 -17 71
-36 49 -36 -18 0 -201 61 -201 67 0 3 12 3 28 -1 30 -6 2 9 -128 68 -41 19
-72 35 -68 35 4 1 67 -25 140 -57z m1039 -413 c48 -31 125 -107 116 -115 -7
-7 -165 115 -171 132 -8 20 2 18 55 -17z m544 -425 c50 -47 83 -82 75 -78 -23
11 -180 148 -180 157 0 17 20 2 105 -79z m-11190 -6441 c4 -32 4 -55 0 -52 -8
9 -35 156 -34 189 1 33 24 -61 34 -137z m7662 -5509 c-3 -3 -12 -4 -19 -1 -8
3 -5 6 6 6 11 1 17 -2 13 -5z"/>
<path d="M8230 10774 c-25 -8 -121 -37 -214 -64 -207 -61 -228 -79 -133 -115
42 -16 56 -28 71 -58 18 -37 18 -40 -5 -158 l-23 -120 -31 7 c-159 37 -382
-62 -566 -252 -133 -138 -220 -276 -273 -435 -70 -210 -43 -445 60 -524 133
-101 318 -50 517 143 l77 75 0 -68 c0 -120 51 -187 153 -201 102 -14 251 62
346 175 45 54 48 63 26 81 -12 10 -22 6 -56 -25 -50 -45 -122 -79 -149 -70
-46 15 -46 10 95 680 164 778 195 927 189 936 -7 12 -30 10 -84 -7z m-404
-633 c23 -10 44 -23 48 -29 5 -8 -32 -197 -128 -662 -16 -73 -18 -77 -87 -143
-81 -78 -134 -106 -201 -107 -36 0 -54 6 -78 26 -48 41 -63 79 -68 180 -12
228 85 528 212 655 93 94 206 124 302 80z"/>
<path d="M8731 10725 c-118 -36 -218 -70 -223 -77 -15 -24 -8 -36 22 -43 39
-9 86 -48 94 -79 8 -33 -51 -337 -254 -1301 -29 -133 -36 -183 -27 -193 8 -10
34 -12 111 -7 180 10 185 12 190 48 33 203 158 816 172 838 12 20 162 133 206
155 28 14 74 28 103 31 44 5 56 2 74 -16 37 -37 29 -100 -70 -488 -100 -397
-110 -459 -82 -513 28 -54 74 -75 164 -75 67 0 85 5 150 37 73 36 167 116 204
171 14 22 15 31 6 40 -13 13 -12 13 -106 -50 -72 -49 -125 -42 -125 17 0 14
39 180 87 370 82 331 86 350 87 462 1 126 -6 146 -65 191 -110 82 -351 -5
-568 -205 -29 -27 -53 -48 -55 -48 -4 0 6 47 112 545 49 225 51 257 18 254 -6
0 -107 -29 -225 -64z"/>
<path d="M10085 10763 c-46 -24 -76 -54 -96 -98 -79 -172 124 -318 272 -196
48 40 69 87 69 154 0 64 -26 110 -80 138 -43 23 -124 24 -165 2z"/>
<path d="M12161 10769 c-77 -31 -121 -96 -121 -181 0 -153 172 -219 290 -112
128 116 64 306 -102 303 -24 0 -54 -5 -67 -10z"/>
<path d="M2890 10661 c0 -21 6 -32 20 -36 34 -11 76 -52 93 -92 17 -38 17 -41
-48 -383 -36 -190 -91 -478 -121 -640 -31 -162 -61 -304 -66 -315 -21 -40 -62
-75 -109 -90 -36 -12 -48 -22 -52 -40 l-4 -25 188 0 c181 0 188 1 194 21 8 25
11 21 -48 47 -36 16 -51 30 -63 57 -14 34 -10 58 76 513 49 262 97 515 105
562 22 115 23 118 39 94 11 -17 111 -205 431 -814 54 -102 135 -256 182 -342
l84 -158 64 0 c68 0 67 -1 79 65 6 35 96 513 196 1050 40 209 78 395 87 412
16 35 60 67 108 79 33 8 45 20 45 47 0 16 -15 17 -180 17 -103 0 -180 -4 -180
-9 0 -5 -3 -16 -6 -24 -4 -11 8 -21 39 -35 52 -23 67 -45 67 -99 0 -22 -32
-208 -71 -414 -39 -206 -80 -427 -92 -492 -13 -65 -27 -118 -31 -118 -5 -1
-46 68 -91 153 -104 196 -445 837 -505 948 l-45 85 -193 3 -192 2 0 -29z"/>
<path d="M5015 10268 c-72 -9 -201 -69 -294 -135 -145 -104 -302 -294 -376
-458 -63 -138 -80 -208 -80 -335 0 -136 19 -203 71 -256 57 -57 109 -78 189
-77 112 0 196 46 343 187 l82 79 0 -67 c0 -79 16 -122 58 -158 115 -97 306
-32 453 154 29 36 30 41 16 55 -15 15 -19 13 -56 -20 -52 -47 -92 -67 -134
-67 -37 0 -47 12 -47 56 0 26 37 193 161 732 38 167 67 307 64 312 -10 16 -29
12 -121 -29 -75 -34 -91 -38 -104 -27 -26 23 -93 53 -130 58 -19 2 -62 1 -95
-4z m19 -109 c23 -6 54 -20 69 -32 l26 -22 -58 -260 c-32 -143 -69 -311 -82
-374 l-24 -114 -65 -55 c-83 -69 -131 -92 -199 -92 -49 0 -57 3 -91 38 -49 49
-65 119 -57 257 15 249 117 483 261 594 84 65 140 80 220 60z"/>
<path d="M5945 10218 c-110 -32 -210 -63 -222 -68 -36 -15 -28 -45 17 -65 49
-22 70 -53 70 -103 0 -34 -68 -375 -159 -797 -25 -119 -28 -142 -16 -154 11
-11 37 -12 149 -4 74 5 138 11 141 14 2 3 27 122 55 265 28 142 65 327 82 409
l31 150 76 75 c84 83 174 137 244 146 40 6 48 3 73 -21 25 -25 26 -30 21 -93
-4 -37 -45 -222 -93 -412 -88 -353 -101 -435 -75 -484 35 -64 133 -90 241 -62
87 22 142 56 223 137 68 68 78 88 53 108 -11 9 -22 5 -53 -24 -73 -67 -144
-85 -164 -41 -9 19 5 89 80 392 95 387 112 488 91 564 -35 128 -182 159 -358
75 -85 -40 -150 -86 -261 -184 -41 -36 -72 -59 -69 -51 3 8 16 70 28 138 20
106 21 125 9 136 -12 12 -47 4 -214 -46z"/>
<path d="M10003 10212 c-208 -61 -223 -67 -223 -89 0 -16 9 -27 33 -37 19 -7
44 -26 56 -42 31 -39 28 -66 -58 -483 -39 -190 -71 -367 -71 -394 0 -64 23
-111 69 -139 29 -19 49 -23 111 -22 116 1 177 29 278 128 45 45 82 89 82 99 0
31 -27 29 -72 -5 -64 -49 -103 -63 -133 -50 -44 20 -45 12 110 738 36 166 65
311 65 322 0 42 -20 40 -247 -26z"/>
<path d="M10825 10249 c-49 -16 -147 -45 -217 -65 -117 -34 -128 -39 -128 -60
0 -17 9 -27 33 -38 42 -17 77 -61 77 -95 0 -24 -91 -474 -165 -819 -15 -68
-24 -130 -21 -139 5 -13 22 -14 124 -9 64 4 131 9 147 12 l31 5 43 227 c23
125 61 313 83 417 l41 190 59 58 c74 71 136 115 200 139 61 23 100 23 128 0
20 -16 23 -28 22 -80 -1 -59 -50 -281 -143 -640 -44 -173 -48 -232 -19 -279
30 -50 73 -68 161 -68 67 1 85 5 151 37 46 23 97 59 135 97 76 74 87 92 69
117 -13 17 -16 16 -54 -18 -90 -81 -172 -92 -172 -22 0 12 41 188 90 391 75
303 91 383 92 453 1 73 -2 92 -21 127 -33 58 -86 85 -164 85 -132 -1 -269 -74
-445 -237 -34 -31 -62 -53 -62 -49 0 5 11 67 25 139 14 71 25 130 25 132 0 1
-8 6 -17 11 -12 6 -47 0 -108 -19z"/>
<path d="M12105 10224 c-263 -78 -260 -76 -263 -99 -2 -16 8 -26 43 -43 34
-16 50 -32 61 -58 15 -35 13 -50 -46 -333 -114 -553 -117 -576 -56 -637 107
-107 330 -45 468 130 34 43 37 51 25 64 -13 12 -22 9 -73 -27 -95 -66 -154
-63 -154 9 0 24 83 425 185 898 21 97 24 126 15 137 -7 8 -15 14 -19 14 -3 -1
-87 -25 -186 -55z"/>
<path d="M4437 8303 c-15 -14 -6 -52 13 -58 34 -11 75 -52 94 -92 17 -38 17
-40 -49 -388 -37 -193 -91 -480 -121 -640 -31 -159 -62 -305 -71 -323 -16 -33
-76 -75 -124 -87 -18 -4 -29 -15 -32 -31 l-4 -24 188 0 c108 0 189 4 189 9 0
5 2 16 6 24 3 10 -4 16 -26 21 -43 8 -100 66 -100 101 0 15 16 109 35 209 19
99 66 350 105 556 39 206 73 382 76 390 3 8 54 -80 118 -200 154 -294 440
-837 524 -994 l68 -128 64 0 c59 0 65 2 72 23 4 13 37 184 73 379 169 907 196
1047 205 1081 15 53 44 85 98 105 55 20 58 22 67 52 l6 22 -180 0 c-103 0
-181 -4 -181 -9 0 -5 -3 -16 -6 -24 -4 -11 8 -21 39 -35 80 -35 82 -57 33
-323 -98 -528 -147 -786 -154 -803 -6 -14 -73 104 -287 505 -153 288 -298 561
-323 607 l-44 82 -182 0 c-101 0 -186 -3 -189 -7z"/>
<path d="M6886 7860 l-89 -40 -51 32 c-48 31 -55 33 -141 32 -110 0 -185 -28
-315 -115 -328 -220 -548 -657 -475 -944 21 -80 59 -132 125 -169 48 -27 64
-31 125 -30 111 1 206 55 358 203 l67 65 0 -67 c0 -80 16 -123 58 -159 72 -60
161 -61 274 -1 74 39 201 163 196 190 -5 29 -24 24 -74 -17 -59 -49 -111 -67
-143 -51 -40 22 -43 4 130 756 75 326 79 355 49 355 -3 0 -45 -18 -94 -40z
m-267 -99 c22 -12 42 -25 45 -29 3 -5 -3 -44 -13 -88 -10 -43 -47 -209 -81
-369 l-62 -290 -54 -51 c-142 -134 -275 -146 -337 -30 -20 37 -22 55 -21 186
1 125 4 159 28 245 31 115 79 219 133 290 44 58 149 140 196 154 45 14 118 6
166 -18z"/>
<path d="M8150 7889 c-14 -5 -36 -20 -48 -32 -62 -57 -67 -128 -20 -244 38
-96 44 -197 14 -253 -39 -72 -160 -246 -259 -372 -99 -127 -102 -130 -109
-102 -4 16 -14 142 -23 279 -21 330 -42 554 -56 596 -60 177 -250 173 -419 -8
-70 -75 -82 -101 -57 -122 10 -8 21 -3 47 24 61 63 118 67 140 11 9 -25 60
-494 88 -821 l17 -200 80 3 79 2 59 58 c248 243 574 704 647 917 36 105 21
203 -40 247 -31 22 -106 31 -140 17z"/>
<path d="M9435 7886 c-73 -33 -106 -102 -175 -375 -75 -296 -213 -705 -249
-744 -5 -5 -11 22 -15 60 -46 500 -78 829 -87 877 -21 119 -69 177 -152 184
-111 9 -207 -47 -307 -179 -58 -77 -60 -82 -44 -100 16 -18 18 -17 59 26 72
73 123 68 145 -14 11 -42 94 -580 141 -920 l33 -234 -81 -77 c-123 -117 -176
-133 -254 -75 -94 69 -176 90 -242 61 -54 -23 -80 -59 -84 -118 -6 -75 17
-116 86 -150 93 -48 197 -34 327 43 130 76 370 348 561 634 148 222 372 599
472 797 82 161 82 251 2 296 -44 25 -92 27 -136 8z"/>
<path d="M10717 7859 l-89 -40 -51 33 c-49 31 -56 33 -142 32 -74 0 -101 -5
-154 -27 -213 -89 -436 -304 -550 -533 -82 -162 -114 -321 -94 -454 15 -97 47
-155 107 -196 142 -99 287 -58 494 140 l82 79 0 -60 c0 -107 36 -168 117 -199
55 -21 126 -13 202 24 75 35 228 187 210 208 -17 20 -21 18 -75 -26 -59 -49
-111 -67 -143 -51 -26 15 -28 61 -5 164 18 83 141 621 183 807 22 92 26 127
18 132 -17 11 -13 12 -110 -33z m-313 -80 c23 -6 55 -20 70 -32 l27 -22 -35
-150 c-19 -82 -55 -249 -81 -370 l-46 -220 -54 -51 c-144 -135 -283 -146 -341
-27 -23 48 -31 210 -15 314 35 221 127 402 259 501 86 65 134 78 216 57z"/>
</g>
</svg>
